<?xml version="1.0" standalone="no"?>
<!DOCTYPE svg PUBLIC "-//W3C//DTD SVG 20010904//EN"
 "http://www.w3.org/TR/2001/REC-SVG-20010904/DTD/svg10.dtd">
<svg version="1.0" xmlns="http://www.w3.org/2000/svg"
 width="512.000000pt" height="512.000000pt" viewBox="0 0 512.000000 512.000000"
 preserveAspectRatio="xMidYMid meet">
<metadata>
Created by potrace 1.14, written by Peter Selinger 2001-2017
</metadata>
<g transform="translate(0.000000,512.000000) scale(0.100000,-0.100000)"
fill="#000000" stroke="none">
<path d="M2300 5016 c-60 -17 -120 -49 -148 -79 l-23 -24 -81 41 -80 41 -117
0 c-133 0 -176 -12 -281 -80 -74 -48 -149 -124 -205 -208 -21 -31 -44 -57 -51
-57 -23 0 -45 -31 -39 -54 13 -47 32 -70 69 -87 l39 -17 -34 -21 c-39 -24
-121 -51 -157 -51 -18 0 -23 -4 -18 -17 19 -47 105 -160 172 -222 l75 -70 -38
-10 c-21 -6 -74 -13 -118 -16 -166 -13 -347 -60 -520 -135 -42 -18 -61 -21
-117 -15 -181 17 -285 -92 -239 -252 7 -25 6 -35 -6 -44 -41 -35 -93 -207 -93
-313 0 -55 2 -61 39 -97 l39 -40 -15 -39 c-32 -82 18 -198 96 -221 24 -7 46
-24 61 -47 33 -47 153 -122 196 -122 8 0 26 -12 39 -27 22 -25 24 -26 25 -8 0
11 8 41 17 68 15 41 20 46 37 40 64 -24 186 7 186 46 0 11 15 28 32 40 33 20
33 20 54 0 24 -22 75 -39 120 -39 17 0 53 -12 80 -26 27 -14 119 -62 205 -106
237 -120 283 -170 282 -303 -1 -87 -31 -178 -99 -302 -27 -48 -51 -91 -52 -96
-2 -4 17 2 43 13 26 11 49 20 51 20 11 0 -68 -138 -93 -162 -34 -33 -92 -58
-133 -58 -39 0 -48 -22 -26 -66 16 -35 71 -68 90 -56 6 3 6 -3 1 -14 -97 -235
-111 -467 -32 -532 14 -12 14 -17 0 -55 -10 -26 -16 -77 -17 -132 0 -84 2 -95
37 -169 30 -63 36 -86 31 -113 -12 -61 14 -120 80 -187 58 -58 61 -64 62 -111
2 -132 135 -293 325 -395 49 -26 67 -30 132 -30 70 0 76 2 79 22 2 12 26 40
56 62 32 26 74 73 109 126 65 98 189 254 277 347 156 167 459 404 653 511 381
211 662 255 858 134 55 -34 66 -37 135 -37 85 1 116 13 174 72 68 69 81 104
81 223 0 102 -1 107 -36 170 -45 83 -140 158 -249 196 -41 15 -79 31 -83 35
-5 4 22 12 60 18 86 15 109 27 67 36 -72 16 -94 28 -114 59 -25 42 -25 66 1
110 28 47 19 70 -44 111 -98 62 -129 108 -173 246 -24 77 -25 88 -15 153 18
114 -6 218 -68 288 l-31 35 53 0 c61 -1 106 20 137 63 l21 30 -26 -10 c-44
-17 -99 -12 -136 13 -27 17 -50 54 -109 175 -58 116 -71 152 -59 152 22 0 65
35 72 59 3 14 -1 21 -17 25 -33 8 -105 74 -126 117 -11 21 -29 63 -40 92 -11
30 -34 73 -50 96 -28 37 -29 43 -16 64 7 12 16 34 20 49 3 15 14 29 25 33 37
11 51 40 54 107 3 81 20 108 91 143 48 23 54 30 46 46 -6 11 -38 27 -83 40
-94 28 -181 71 -228 114 -53 48 -113 76 -175 82 -48 5 -55 9 -60 32 -24 108
-61 178 -137 255 -67 68 -116 98 -193 117 -103 25 -134 51 -195 162 l-27 51
-7 -37 c-6 -31 -3 -45 17 -75 41 -60 89 -102 158 -136 112 -55 150 -83 150
-111 0 -29 -3 -31 -112 -75 l-87 -36 49 -42 49 -42 -28 -27 c-17 -17 -36 -56
-49 -100 -50 -162 -121 -175 -262 -47 -36 32 -52 44 -37 27 37 -40 47 -105 22
-133 -23 -26 -76 -35 -117 -21 -30 11 -34 9 -51 -14 -10 -14 -26 -25 -35 -25
-10 0 -48 20 -86 45 -108 70 -156 72 -254 9 -67 -43 -113 -51 -209 -35 -96 17
-100 19 -111 50 -16 46 8 87 69 116 l52 24 -39 6 c-83 13 -135 28 -127 35 7 6
55 25 123 47 8 3 -7 11 -35 19 -27 8 -76 22 -108 31 -50 14 -62 14 -98 3 -39
-13 -42 -13 -60 9 -17 21 -17 25 -3 53 9 17 32 37 53 47 38 17 38 17 21 39
-13 15 -41 28 -87 38 -120 28 -118 21 -28 110 115 114 227 164 371 164 104 0
192 -29 238 -80 24 -27 36 -35 36 -23 0 9 17 33 38 53 58 54 126 72 285 74
151 1 157 -1 250 -84 31 -28 57 -47 57 -40 0 52 -106 139 -208 170 -74 23
-191 25 -262 6z m1141 -672 c27 -13 66 -40 87 -58 40 -35 136 -102 182 -126
l28 -15 -22 -17 c-21 -15 -23 -15 -33 2 -7 11 -44 26 -95 39 -46 12 -108 33
-139 47 -57 24 -99 31 -99 16 0 -5 14 -21 31 -38 47 -44 72 -100 66 -146 -7
-51 -55 -146 -81 -160 -11 -6 -41 -30 -66 -54 -61 -57 -102 -66 -283 -58 -215
10 -230 -3 -241 -201 -4 -66 -12 -136 -18 -155 -14 -48 -55 -100 -78 -100 -16
0 -19 -11 -25 -77 -4 -42 -5 -107 -2 -145 l6 -68 -32 0 c-42 0 -68 -19 -106
-78 -57 -88 -167 -144 -344 -173 -78 -13 -79 -14 -94 -51 -12 -31 -20 -38 -42
-38 -51 1 -160 48 -228 99 -37 28 -92 60 -121 71 -48 18 -203 42 -367 56 -33
3 -87 10 -121 15 l-61 11 54 51 c29 27 56 61 59 73 9 34 -12 87 -49 123 l-34
32 51 51 c118 119 184 147 269 114 24 -9 46 -16 50 -16 14 0 7 27 -13 48 -17
18 -32 22 -78 22 -65 0 -115 -26 -216 -110 -141 -118 -419 -174 -684 -136 -62
9 -117 16 -122 16 -5 0 -17 14 -26 31 -24 47 -21 59 94 353 15 38 41 84 58
102 17 19 28 34 23 34 -14 0 -77 -68 -94 -100 -9 -17 -20 -30 -26 -30 -14 0
-72 -127 -64 -140 3 -5 1 -10 -5 -10 -6 0 -8 -4 -5 -10 3 -5 -1 -33 -10 -62
-8 -28 -15 -68 -15 -87 -1 -34 -2 -35 -15 -17 -19 26 -19 88 1 184 17 85 25
102 64 149 25 31 26 35 16 93 -21 129 37 190 181 190 63 0 95 7 206 46 192 68
287 92 422 109 66 9 162 22 214 30 55 8 101 10 110 5 9 -4 48 -32 86 -60 39
-29 88 -61 110 -71 58 -27 154 -25 256 6 156 47 217 57 273 45 65 -14 137 -63
205 -141 l55 -62 -24 -19 c-31 -25 -68 -17 -145 32 -88 57 -131 72 -204 72
-58 1 -153 -24 -140 -36 2 -2 30 1 62 6 60 11 151 3 142 -12 -3 -4 3 -6 13 -3
12 3 43 -14 87 -48 59 -45 77 -53 122 -57 60 -5 103 15 103 48 0 12 7 20 18
21 15 1 15 2 0 6 -9 2 -21 17 -27 32 -7 15 -38 55 -69 89 l-58 62 41 13 c27 9
45 23 55 43 l16 30 24 -23 c69 -65 197 -110 279 -98 114 16 172 71 217 208 43
132 58 155 116 182 75 35 200 34 269 -1z m-176 -652 c-3 -20 13 -46 35 -55 9
-3 3 -6 -15 -7 -78 -5 -212 -17 -225 -21 -18 -5 -26 36 -11 55 6 8 44 16 89
19 43 3 89 10 102 16 14 5 26 10 27 10 1 1 0 -7 -2 -17z m-2814 -125 c-10 -9
-11 -8 -5 6 3 10 9 15 12 12 3 -3 0 -11 -7 -18z m3158 -130 c20 -22 58 -52 85
-67 48 -28 50 -32 113 -177 36 -81 65 -153 65 -160 1 -7 5 -11 10 -10 5 1 17
-9 26 -23 9 -14 10 -20 3 -13 -8 6 -20 9 -29 6 -9 -4 -13 -2 -9 4 4 6 0 14 -9
17 -8 3 -12 2 -9 -4 12 -19 -12 -10 -54 21 -24 17 -45 28 -47 26 -3 -2 27 -38
66 -78 89 -92 114 -135 134 -226 29 -130 15 -210 -43 -246 -17 -11 -20 -17
-10 -17 13 0 16 -14 15 -88 -1 -81 2 -93 32 -150 17 -34 32 -69 32 -77 0 -8
11 -22 25 -31 20 -13 25 -25 25 -58 0 -24 -3 -46 -7 -49 -10 -11 -46 50 -82
137 -47 113 -59 156 -81 283 -11 61 -29 135 -40 165 l-20 53 23 17 c12 9 24
13 25 8 2 -6 7 -10 12 -10 10 0 -8 70 -23 88 -6 8 -39 26 -74 42 -35 16 -96
55 -136 88 -106 86 -111 84 -21 -9 138 -142 178 -229 218 -474 14 -88 38 -194
52 -235 14 -41 29 -105 33 -141 5 -36 18 -87 30 -114 30 -67 137 -167 234
-217 88 -46 167 -129 188 -196 7 -25 27 -50 59 -75 26 -21 56 -54 66 -72 17
-33 17 -35 -1 -54 -22 -25 -80 -28 -128 -7 -18 8 -66 48 -107 91 -87 88 -108
101 -209 127 -41 10 -89 30 -108 44 -18 14 -33 21 -33 15 0 -26 130 -91 182
-91 12 0 46 -26 84 -64 74 -75 73 -76 -65 -76 -126 0 -154 12 -202 84 -40 60
-45 53 -17 -23 5 -13 7 -25 6 -26 -2 -2 -48 -6 -104 -10 l-101 -7 -17 58 c-12
39 -20 109 -24 209 -5 117 -8 139 -13 100 -16 -109 -9 -269 16 -366 6 -26 4
-28 -43 -38 -27 -5 -95 -25 -150 -44 l-99 -33 -7 78 c-4 43 -14 115 -22 161
-9 45 -19 120 -24 167 l-7 85 -2 -95 c0 -52 6 -144 14 -205 16 -118 20 -295 7
-295 -15 0 -85 101 -108 158 -20 48 -24 74 -23 167 0 146 19 244 67 354 49
112 41 111 -16 -1 -54 -107 -71 -176 -79 -318 -6 -128 7 -200 52 -290 14 -27
25 -53 25 -58 0 -5 -37 -19 -82 -32 -160 -43 -169 -50 -177 -148 l-7 -67 -23
45 c-15 27 -33 95 -47 179 -25 142 -40 185 -29 86 9 -92 11 -372 2 -381 -11
-11 -21 7 -59 106 -31 81 -33 91 -32 215 1 96 7 150 22 205 11 41 18 77 17 79
-2 2 -19 -43 -37 -100 -29 -92 -33 -116 -33 -214 1 -69 6 -123 14 -143 12 -29
11 -39 -14 -107 -15 -41 -31 -75 -35 -75 -16 0 -49 70 -59 126 -6 32 -12 150
-12 263 -1 113 -5 240 -9 281 l-7 75 -1 -100 c-1 -55 -7 -172 -13 -260 -9
-139 -8 -170 6 -235 44 -201 44 -282 0 -326 -35 -35 -100 -33 -151 4 -53 39
-121 114 -141 157 -9 19 -22 34 -27 32 -23 -8 -17 -69 13 -135 l31 -67 -90 95
c-99 104 -150 173 -171 235 l-14 40 -3 -38 c-6 -68 16 -137 72 -226 98 -156
105 -181 55 -181 -47 0 -127 51 -200 127 -119 124 -154 199 -188 404 -24 142
-26 260 -6 344 8 33 14 91 15 129 0 39 7 99 16 135 18 72 59 161 74 161 10 0
30 -63 30 -100 1 -24 1 -24 16 -5 24 33 36 94 35 192 -1 111 19 220 50 269 25
41 32 37 48 -28 15 -65 14 -147 -4 -198 -19 -53 -19 -84 -1 -99 10 -9 19 2 44
57 58 127 65 190 32 294 -11 34 -20 82 -20 105 0 58 19 75 83 71 73 -4 92 -33
92 -141 0 -59 -5 -91 -18 -114 -10 -20 -13 -33 -7 -33 6 0 9 -4 6 -8 -2 -4 4
-8 14 -8 15 0 24 18 44 81 14 44 27 92 31 107 3 15 18 42 34 61 20 22 33 51
40 91 20 106 79 181 138 174 22 -2 29 -9 31 -29 l3 -27 43 17 c43 16 117 70
148 106 19 23 45 78 86 184 32 82 48 97 57 54 13 -56 28 -84 44 -81 25 5 26
85 2 147 -10 28 -15 51 -11 51 5 0 12 -4 15 -10 3 -5 11 -10 17 -10 6 0 2 10
-10 23 -11 12 -28 39 -36 58 -14 33 -14 42 5 110 21 74 42 109 64 109 25 0 25
-17 0 -153 -9 -51 14 -18 35 51 12 37 27 77 35 89 9 13 96 63 208 119 105 52
196 100 202 105 6 6 16 -4 28 -28 11 -21 36 -55 56 -76z m-1492 -753 c-3 -3
-12 -4 -19 -1 -8 3 -5 6 6 6 11 1 17 -2 13 -5z"/>
<path d="M896 3851 c37 -17 54 -36 54 -61 0 -5 -14 -4 -31 2 -77 27 -198 -21
-296 -117 -75 -73 -81 -92 -19 -64 24 10 113 37 197 59 160 42 212 64 217 94
2 10 -15 35 -41 61 -37 38 -50 45 -83 45 l-39 0 41 -19z"/>
<path d="M2288 3791 c38 -37 62 -51 62 -35 0 9 -41 42 -75 61 -26 14 -25 11
13 -26z"/>
<path d="M1992 3800 c-23 -10 -53 -31 -67 -46 l-26 -27 -55 17 c-31 10 -58 15
-61 13 -2 -3 15 -17 39 -31 47 -27 140 -50 169 -41 12 4 20 -3 27 -24 13 -36
47 -55 128 -71 52 -10 70 -10 118 4 59 17 96 45 96 71 0 11 11 15 40 15 48 0
53 15 8 24 -18 3 -62 24 -98 46 -117 71 -232 89 -318 50z m96 -61 c-6 -17 -8
-46 -5 -65 3 -19 2 -34 -2 -34 -8 0 -51 38 -51 46 0 10 22 49 38 67 23 26 32
20 20 -14z m140 22 c19 -12 11 -45 -11 -49 -27 -5 -60 27 -46 45 13 15 38 17
57 4z m108 -99 c-4 -11 -16 -22 -27 -25 -11 -3 -19 -2 -17 1 2 4 10 19 18 35
15 31 36 22 26 -11z"/>
<path d="M1850 3631 c0 -3 27 -17 61 -31 33 -14 85 -46 116 -73 30 -26 66 -53
81 -61 98 -49 250 -13 312 74 l22 30 -59 -34 c-133 -78 -227 -72 -343 23 -25
20 -53 42 -62 49 -17 14 -128 33 -128 23z"/>
<path d="M3157 3218 c-69 -98 -72 -111 -72 -305 0 -158 1 -170 15 -145 11 21
15 64 15 187 1 174 5 193 65 280 17 25 29 45 26 45 -3 0 -25 -28 -49 -62z"/>
<path d="M3405 3246 c-27 -41 -55 -124 -55 -164 l-1 -37 -17 50 c-14 42 -21
50 -45 53 -63 7 -72 -45 -21 -121 l25 -38 -47 -97 c-26 -53 -64 -144 -85 -202
-20 -58 -47 -125 -58 -150 -25 -55 -26 -79 -4 -125 12 -25 28 -39 60 -51 24
-9 48 -24 53 -33 5 -9 10 -11 10 -4 0 6 -10 20 -23 30 -40 32 -57 65 -57 115
0 53 10 82 41 118 l21 25 -16 -28 c-15 -24 -15 -28 -1 -33 9 -4 15 -19 15 -40
0 -27 9 -43 39 -73 41 -40 57 -89 63 -191 2 -37 5 -27 16 50 14 105 25 127 91
178 61 46 74 43 55 -10 -13 -35 -14 -69 -9 -173 6 -117 5 -135 -14 -185 -12
-30 -21 -62 -21 -71 0 -9 24 -37 54 -63 60 -51 92 -114 84 -166 -3 -22 -2 -28
6 -20 6 6 11 32 11 58 0 40 -8 57 -53 122 l-53 76 11 65 c8 46 8 88 1 149 -14
108 -14 189 0 229 13 37 21 38 49 9 17 -19 20 -32 17 -70 -4 -38 2 -62 33
-130 48 -109 68 -170 79 -243 l9 -60 1 65 c0 36 -6 90 -14 120 -8 30 -15 77
-15 104 0 28 -8 68 -19 90 -12 26 -21 71 -23 121 -5 92 -20 127 -85 196 -44
47 -46 52 -65 161 -10 62 -30 148 -43 191 -27 83 -24 131 11 198 18 35 11 38
-11 5z"/>
<path d="M2882 2775 c-6 -38 -10 -71 -8 -73 7 -6 28 107 24 126 -2 9 -9 -14
-16 -53z"/>
<path d="M3581 2790 c-1 -31 20 -87 40 -109 34 -37 33 -18 -5 55 -19 38 -35
62 -35 54z"/>
<path d="M2801 2607 l-55 -62 48 45 c39 37 75 82 64 79 -2 0 -28 -28 -57 -62z"/>
<path d="M3701 2399 c-1 -102 22 -158 94 -229 54 -53 58 -48 9 12 -56 65 -84
133 -85 203 -1 99 -17 112 -18 14z"/>
<path d="M2708 2423 c-4 -31 -25 -88 -52 -140 -24 -48 -48 -104 -51 -123 -5
-23 12 1 49 73 58 114 70 151 64 208 -3 30 -4 28 -10 -18z"/>
<path d="M2807 2403 c-14 -114 -49 -314 -62 -352 -8 -25 -13 -46 -11 -48 9 -9
46 101 55 163 22 154 33 265 28 270 -2 3 -7 -12 -10 -33z"/>
<path d="M2892 2295 c0 -16 2 -22 5 -12 2 9 2 23 0 30 -3 6 -5 -1 -5 -18z"/>
<path d="M2881 2251 c-1 -7 -19 -56 -42 -109 -22 -52 -42 -118 -45 -146 l-5
-51 35 88 c40 100 69 203 62 220 -3 8 -5 7 -5 -2z"/>
<path d="M3291 2184 c0 -11 3 -14 6 -6 3 7 2 16 -1 19 -3 4 -6 -2 -5 -13z"/>
<path d="M2936 2098 c-9 -29 -76 -349 -76 -357 1 -3 12 20 25 52 13 32 34 74
46 94 16 25 22 51 22 87 0 60 -5 146 -8 146 -2 0 -6 -10 -9 -22z"/>
<path d="M3085 2053 c-12 -81 -55 -216 -82 -258 -24 -37 -24 -39 -3 -20 44 39
80 141 95 268 9 68 0 77 -10 10z"/>
<path d="M3652 1950 c0 -14 2 -19 5 -12 2 6 2 18 0 25 -3 6 -5 1 -5 -13z"/>
<path d="M3835 1860 c15 -113 149 -250 245 -250 17 0 40 4 50 10 14 7 19 5 23
-9 4 -17 72 -39 84 -28 2 3 -14 8 -35 12 -31 5 -42 12 -46 30 -11 43 -68 81
-142 95 -79 15 -106 38 -155 129 l-30 56 6 -45z"/>
<path d="M3642 1850 c0 -19 2 -27 5 -17 2 9 2 25 0 35 -3 9 -5 1 -5 -18z"/>
<path d="M3302 1780 c0 -14 2 -19 5 -12 2 6 2 18 0 25 -3 6 -5 1 -5 -13z"/>
<path d="M2347 1718 c-24 -83 -54 -218 -61 -273 l-6 -50 16 35 c36 78 55 150
64 239 6 52 8 96 6 98 -2 3 -11 -19 -19 -49z"/>
<path d="M2486 1642 c-20 -47 -31 -96 -37 -167 -5 -55 -15 -120 -22 -143 -12
-40 -11 -50 14 -125 16 -45 35 -111 43 -147 l15 -65 -5 75 c-11 147 -5 475 11
556 8 43 13 79 12 81 -2 1 -16 -27 -31 -65z"/>
<path d="M2631 1584 c0 -11 3 -14 6 -6 3 7 2 16 -1 19 -3 4 -6 -2 -5 -13z"/>
<path d="M4300 1546 c0 -2 8 -10 18 -17 15 -13 16 -12 3 4 -13 16 -21 21 -21
13z"/>
<path d="M3051 1470 c0 -41 7 -129 16 -195 l17 -120 8 54 c6 40 3 86 -12 170
-10 64 -21 127 -23 141 -2 14 -5 -9 -6 -50z"/>
</g>
</svg>
